<svg xmlns="http://www.w3.org/2000/svg" viewBox="0 0 32 32" width="32" height="32">
  <rect width="32" height="32" fill="#059669" rx="6"/>
  <path d="M8 6 C12 4, 20 4, 24 8 C26 10, 26 12, 24 14 C22 16, 22 18, 24 20 C26 22, 24 24, 22 26 C18 28, 14 26, 12 24 C10 22, 8 20, 8 18 C6 16, 6 14, 8 12 C8 10, 8 8, 8 6 Z" fill="#FBBF24"/>
  <circle cx="16" cy="16" r="3" fill="#EF4444"/>
  <circle cx="16" cy="16" r="1.5" fill="#FFFFFF"/>
  <text x="16" y="28" text-anchor="middle" fill="#FFFFFF" font-size="8" font-weight="bold">$</text>
</svg>
